<svg width="11" height="14" viewBox="0 0 11 14" fill="none" xmlns="http://www.w3.org/2000/svg">
<path d="M1.59003 11.8262L0.965255 5.20548C0.854507 4.0319 1.77761 3.01758 2.95641 3.01758H8.10404C9.26087 3.01758 10.1764 3.99609 10.0996 5.15037L9.65908 11.7711C9.58917 12.8218 8.71652 13.6383 7.6635 13.6383H3.58118C2.54941 13.6383 1.68696 12.8534 1.59003 11.8262Z" stroke="#F58220" stroke-width="0.5"/>
<path d="M0 3.01758H11" stroke="#F58220" stroke-width="0.5"/>
<path d="M6.78553 0.362305H4.49686C4.17778 0.362305 3.89281 0.561959 3.78385 0.86185C3.60408 1.35658 3.97048 1.87955 4.49686 1.87955H6.78553C7.3378 1.87955 7.70499 1.30827 7.47563 0.805876C7.35228 0.535664 7.08256 0.362305 6.78553 0.362305Z" stroke="#F58220" stroke-width="0.5"/>
<path d="M3.41406 4.15527L3.79337 12.5001" stroke="#F58220" stroke-width="0.5"/>
<path d="M5.68945 4.15527V12.5001" stroke="#F58220" stroke-width="0.5"/>
<path d="M7.96525 4.15527L7.58594 12.5001" stroke="#F58220" stroke-width="0.5"/>
<path d="M0.569336 3.01765V3.01765C0.569336 2.43108 1.04485 1.95557 1.63142 1.95557H9.55897C10.1455 1.95557 10.6211 2.43108 10.6211 3.01765V3.01765" stroke="#F58220" stroke-width="0.5"/>
</svg>
