<svg width="17" height="15" viewBox="0 0 17 15" fill="none" xmlns="http://www.w3.org/2000/svg">
<path d="M1.38487 0.724121C1.08742 0.724121 0.846191 0.953492 0.846191 1.23634C0.846191 1.5192 1.08728 1.74857 1.38487 1.74857H3.10185L4.95345 10.0558C5.02672 10.3686 5.24227 10.6288 5.51455 10.6268H14.492C14.7766 10.6306 15.0383 10.3853 15.0383 10.1146C15.0383 9.84399 14.7766 9.59853 14.492 9.60234H5.9522L5.72213 8.5779H15.2104C15.4516 8.57623 15.6794 8.40152 15.7321 8.17775L16.9889 3.05582C17.0589 2.75856 16.7875 2.43381 16.4672 2.43152H4.3588L4.06698 1.12973C4.01601 0.902264 3.78405 0.723969 3.53958 0.724213L1.38487 0.724121ZM4.5831 3.45588H7.38856L7.65784 4.99239H4.92525L4.5831 3.45588ZM8.48831 3.45588H11.8773L11.608 4.99239H8.75775L8.48831 3.45588ZM12.977 3.45588H15.7882L15.4122 4.99239H12.7076L12.977 3.45588ZM5.15542 6.01684H7.83737L8.10665 7.55348H5.49757L5.15542 6.01684ZM8.93718 6.01684H11.4284L11.1591 7.55348H9.20659L8.93718 6.01684ZM12.5282 6.01684H15.1597L14.7837 7.55348H12.2588L12.5282 6.01684ZM7.48956 11.3095C6.50428 11.3095 5.69406 12.0799 5.69406 13.0168C5.69406 13.9537 6.50428 14.7241 7.48956 14.7241C8.47484 14.7241 9.28506 13.9537 9.28506 13.0168C9.28506 12.0799 8.47484 11.3095 7.48956 11.3095ZM12.517 11.3095C11.5317 11.3095 10.7215 12.0799 10.7215 13.0168C10.7215 13.9537 11.5317 14.7241 12.517 14.7241C13.5022 14.7241 14.3124 13.9537 14.3124 13.0168C14.3124 12.0799 13.5022 11.3095 12.517 11.3095ZM7.48956 12.3339C7.89259 12.3339 8.2077 12.6336 8.2077 13.0168C8.2077 13.4 7.89258 13.6997 7.48956 13.6997C7.08654 13.6997 6.77143 13.3999 6.77143 13.0168C6.77143 12.6336 7.08666 12.3339 7.48956 12.3339ZM12.517 12.3339C12.92 12.3339 13.2351 12.6336 13.2351 13.0168C13.2351 13.4 12.92 13.6997 12.517 13.6997C12.1139 13.6997 11.7988 13.3999 11.7988 13.0168C11.7988 12.6336 12.1141 12.3339 12.517 12.3339Z" fill="white"/>
</svg>
