<svg width="18" height="18" viewBox="0 0 18 18" fill="none" xmlns="http://www.w3.org/2000/svg">
<path d="M9 8.625C8.25832 8.625 7.5333 8.40507 6.91661 7.99301C6.29993 7.58096 5.81928 6.99529 5.53545 6.31006C5.25162 5.62484 5.17736 4.87084 5.32206 4.14341C5.46675 3.41598 5.8239 2.7478 6.34835 2.22335C6.8728 1.6989 7.54098 1.34175 8.26841 1.19706C8.99584 1.05236 9.74984 1.12662 10.4351 1.41045C11.1203 1.69428 11.706 2.17493 12.118 2.79161C12.5301 3.4083 12.75 4.13332 12.75 4.875C12.7489 5.86923 12.3535 6.82242 11.6504 7.52545C10.9474 8.22847 9.99423 8.62391 9 8.625ZM9 1.875C8.40666 1.875 7.82664 2.05095 7.33329 2.38059C6.83994 2.71024 6.45543 3.17877 6.22836 3.72695C6.0013 4.27513 5.94189 4.87833 6.05765 5.46027C6.1734 6.04222 6.45912 6.57677 6.87868 6.99632C7.29824 7.41588 7.83279 7.7016 8.41473 7.81736C8.99667 7.93311 9.59987 7.8737 10.1481 7.64664C10.6962 7.41958 11.1648 7.03506 11.4944 6.54171C11.8241 6.04837 12 5.46835 12 4.875C11.9991 4.07963 11.6828 3.31708 11.1203 2.75467C10.5579 2.19225 9.79538 1.8759 9 1.875Z" fill="#9A9A9A"/>
<path d="M14.625 16.8746H3.375C3.07663 16.8746 2.79048 16.756 2.5795 16.5451C2.36853 16.3341 2.25 16.0479 2.25 15.7496V14.6246C2.24996 13.4003 2.58324 12.1991 3.21409 11.1498C3.84494 10.1006 4.74955 9.24293 5.83087 8.66881C6.01351 8.57128 6.2407 8.64051 6.3381 8.8232C6.4355 9.00589 6.36637 9.23317 6.18375 9.33069C5.22248 9.84093 4.41826 10.6033 3.85737 11.5359C3.29648 12.4685 3.00009 13.5363 3 14.6246V15.7496C3 15.849 3.03951 15.9444 3.10983 16.0147C3.18016 16.0851 3.27554 16.1246 3.375 16.1246H14.625C14.7245 16.1246 14.8198 16.0851 14.8902 16.0147C14.9605 15.9444 15 15.849 15 15.7496V14.6246C15.002 13.8364 14.8477 13.0556 14.546 12.3274C14.2443 11.5992 13.8012 10.938 13.2424 10.3822C12.8246 9.96146 12.3448 9.60733 11.8196 9.33219C11.6359 9.23672 11.5645 9.01029 11.6601 8.82665C11.7556 8.64301 11.9821 8.57147 12.1657 8.66694C12.759 8.97739 13.301 9.37704 13.773 9.85194C14.4017 10.4772 14.9002 11.221 15.2396 12.0402C15.5789 12.8594 15.7524 13.7378 15.75 14.6246V15.7496C15.75 16.0479 15.6315 16.3341 15.4205 16.5451C15.2095 16.756 14.9234 16.8746 14.625 16.8746Z" fill="#9A9A9A"/>
</svg>
