<svg width="11" height="10" viewBox="0 0 11 10" fill="none" xmlns="http://www.w3.org/2000/svg">
<path d="M1.56503 6.69134L5.64516 3.06456C5.76177 2.9609 5.8873 3.02137 5.93548 3.06456L7.0994 4.09915C7.5565 4.50546 7.54505 5.22326 7.07522 5.61478L3.55354 8.54952C3.4029 8.67505 3.21867 8.75353 3.02378 8.77518L2.28004 8.85782C1.63123 8.92991 1.08844 8.37112 1.17935 7.72468L1.23914 7.2995C1.27218 7.06454 1.38769 6.84898 1.56503 6.69134Z" fill="#F58220" stroke="#F58220"/>
<path d="M9.35147 2.22981L8.4805 1.45562C8.18818 1.19578 7.74768 1.19578 7.45536 1.45562C7.11009 1.76252 7.11009 2.302 7.45536 2.6089L8.32633 3.38309C8.61865 3.64293 9.05915 3.64293 9.35147 3.38309C9.69673 3.07619 9.69673 2.53672 9.35147 2.22981Z" fill="#F58220" stroke="#F58220"/>
</svg>
