<svg width="19" height="14" viewBox="0 0 19 14" fill="none" xmlns="http://www.w3.org/2000/svg">
<path d="M9.2751 0.0933582L0.683708 6.73121C0.463697 6.90032 0.436845 7.23184 0.627306 7.42715C0.817766 7.62246 1.19133 7.64628 1.41133 7.47735L9.63037 1.12415L17.5809 7.46989C17.7965 7.64293 18.1698 7.62631 18.3649 7.43511C18.5598 7.2439 18.5413 6.9122 18.3257 6.73917L10.0117 0.10132C9.7778 -0.0324897 9.50081 -0.0324895 9.27557 0.0937815L9.2751 0.0933582ZM15.7357 6.32375V13.0155H12.1328V9.07736H6.91047C6.88806 10.3901 6.87492 11.7028 6.8585 13.0155H3.2643V6.3698L2.15574 7.22355V14H7.94976C7.97178 12.6873 7.9853 11.3746 8.00172 10.0618H11.0243V14H16.8446V7.20819L15.7357 6.32375Z" fill="black"/>
</svg>
