<svg width="84" height="69" viewBox="0 0 84 69" fill="none" xmlns="http://www.w3.org/2000/svg">
<path d="M81.967 4.33717L79.8543 2.22442C79.0147 1.38483 77.8977 0.922363 76.7104 0.922363C75.4602 0.922363 74.2614 1.45288 73.4201 2.37782L62.8069 14.0526C61.5561 15.4284 60.8163 17.1728 60.6882 19.0151L54.6681 25.0359C51.2636 24.0065 47.3418 23.2829 43.4898 22.8458C42.3469 21.6319 40.7473 20.9221 39.0179 20.9221H37.999V23.589H39.0173C40.3482 23.589 41.5447 24.3283 42.1392 25.5184L42.5077 26.2554H43.3323C45.3903 26.2554 47.3002 27.2778 48.4419 28.9898L48.8899 29.6616L51.1088 28.1824L50.6608 27.5106C50.4382 27.1767 50.1931 26.8642 49.9325 26.5678C57.8157 28.243 61.9993 30.8563 61.9993 32.9218C61.9993 34.6655 58.9576 36.7681 53.4661 38.3804C52.5221 35.4251 49.8926 33.2835 46.8029 32.9635C45.7557 31.2756 44.1665 30.0168 42.259 29.3807L41.0872 28.9903L40.2436 31.5201L41.4154 31.9105C42.9013 32.4058 44.106 33.4502 44.8061 34.8514L45.1745 35.5884L45.9991 35.5889C48.2152 35.5889 50.1671 37.0115 50.8821 39.058C46.1168 40.1721 39.9564 40.9223 32.6657 40.9223C14.4921 40.9223 3.33195 36.2631 3.33195 32.922C3.33195 30.8571 7.46135 28.2466 15.4103 26.5656C14.1843 27.8953 13.3125 29.5532 12.9464 31.3847L12.8898 31.6667C11.2349 31.902 9.70625 32.662 8.50329 33.8649L7.72193 34.6463L9.60749 36.5318L10.3888 35.7505C11.3536 34.7863 12.6355 34.2558 13.9992 34.2558H15.0919L15.5613 31.9077C16.1155 29.1359 18.2463 26.9013 20.9888 26.2156L21.7649 26.0219L21.9587 25.2457C22.6616 22.4346 24.8442 20.252 27.6554 19.549L27.0084 16.9623C23.7595 17.7742 21.1381 20.0617 19.873 23.0915C7.82799 24.7401 0.666016 28.3943 0.666016 32.9221C0.666016 46.1561 11.4326 56.9224 24.6662 56.9224H40.6669C53.9008 56.9224 64.6671 46.1558 64.6671 32.9221C64.6671 31.412 63.8967 30.0747 62.5722 28.9029L66.5782 24.8969C68.4361 24.7498 70.1857 23.9004 71.4473 22.5125L82.1211 10.7715C82.903 9.91112 83.3337 8.79704 83.3337 7.63453C83.3337 6.38897 82.8488 5.21782 81.9676 4.33726L81.967 4.33717ZM40.6656 54.2552H24.665C14.5899 54.2552 6.1238 47.2345 3.9021 37.8279C5.53686 38.942 7.77597 39.9397 10.5923 40.7965C16.5069 42.5967 24.3458 43.588 32.6646 43.588C40.9838 43.588 48.8232 42.5967 54.7383 40.7965C57.5546 39.9396 59.7944 38.9414 61.4285 37.8279C59.2061 47.2342 50.7405 54.2552 40.6656 54.2552ZM57.4708 26.002L61.9992 21.4742L64.1137 23.5887L60.3482 27.3542C59.4856 26.8664 58.5185 26.416 57.4708 26.002V26.002ZM66.5223 22.2256L63.3576 19.0609C63.4614 17.963 63.8922 16.9244 64.5934 16.0682L69.3617 20.8365C68.6028 21.6144 67.5954 22.1051 66.5223 22.2256L66.5223 22.2256ZM80.1467 8.9772L71.1597 18.8632L66.3805 14.0846L75.3929 4.17095C75.7296 3.80075 76.2094 3.58854 76.7099 3.58854C77.1851 3.58854 77.6326 3.77365 77.9682 4.10982L80.0809 6.22257C80.458 6.5997 80.6656 7.1008 80.6656 7.6342C80.6656 8.13184 80.4817 8.60873 80.1466 8.97721L80.1467 8.9772Z" fill="white"/>
<path d="M38.0007 60.1405C38.3571 59.7842 38.8305 59.5881 39.3339 59.5881C39.8373 59.5881 40.3113 59.7842 40.6671 60.1405L42.0003 61.4737L43.3335 60.1405C43.6899 59.7842 44.1633 59.5881 44.6667 59.5881C45.1701 59.5881 45.6441 59.7842 45.9999 60.1405L46.3903 60.5309L48.2758 58.6454L47.8866 58.2556C47.0268 57.3958 45.8834 56.9224 44.6677 56.9224C43.6966 56.9224 42.7723 57.2245 42.0008 57.7839C41.2298 57.2245 40.3049 56.9224 39.3339 56.9224C38.1177 56.9224 36.9749 57.3958 36.115 58.2556L35.7246 58.6459L37.6102 60.5315L38.0007 60.1405Z" fill="white"/>
<path d="M36.4084 67.617C36.9308 67.0945 37.6263 66.8062 38.3656 66.8062C38.7928 66.8062 39.2213 66.9071 39.603 67.0986L42.7792 68.6867L43.7953 65.638C44.094 64.7419 44.9296 64.14 45.8741 64.14C46.4594 64.14 47.0095 64.3677 47.4235 64.7818L47.7245 65.0828L49.6101 63.1972L49.3091 62.8962C48.3916 61.9788 47.1715 61.4736 45.8739 61.4736C43.7795 61.4736 41.928 62.8086 41.2654 64.7951L41.2215 64.9266L40.796 64.7138C40.0452 64.3384 39.2051 64.14 38.3654 64.14C36.914 64.14 35.5497 64.7051 34.5227 65.7315L34.3906 65.8636L36.2762 67.7492L36.4084 67.617Z" fill="white"/>
</svg>
