<svg width="18" height="17" viewBox="0 0 18 17" fill="none" xmlns="http://www.w3.org/2000/svg">
<ellipse cx="9.00047" cy="8.5" rx="8.48485" ry="8" fill="#FF595A"/>
<g clip-path="url(#clip0_3755_6652)">
<path d="M10.9583 14.0757C10.5671 14.0757 10.2491 13.7562 10.2491 13.363V10.271C10.1842 10.2409 10.111 10.1974 10.0344 10.1405C9.8496 9.99829 9.61821 9.73059 9.56327 9.26713C9.50667 8.7769 9.52165 8.05075 9.53996 7.20916C9.54995 6.75072 9.55994 6.27555 9.55994 5.79033C9.55994 4.29789 11.2047 3.13505 11.2746 3.08653C11.3495 3.03466 11.4494 3.02797 11.531 3.0698C11.6125 3.1133 11.6641 3.19696 11.6641 3.29065V6.62858C11.6641 6.76578 11.5526 6.87788 11.4161 6.87788C11.2796 6.87788 11.1681 6.76578 11.1681 6.62858V3.81435C10.7236 4.21925 10.0544 4.96547 10.0544 5.79033C10.0544 6.28224 10.0444 6.75908 10.0327 7.22087C10.0144 8.04406 9.99776 8.75347 10.0527 9.20857C10.1143 9.73728 10.5038 9.84604 10.5471 9.85775C10.662 9.88285 10.7402 9.98324 10.7402 10.1004V13.3647C10.7402 13.4835 10.8368 13.5788 10.9533 13.5788C11.0698 13.5788 11.1664 13.4818 11.1664 13.3647V8.5276C11.1664 8.3904 11.2779 8.2783 11.4144 8.2783C11.5509 8.2783 11.6625 8.3904 11.6625 8.5276V13.3647C11.6625 13.7579 11.3445 14.0774 10.9533 14.0774L10.9583 14.0757Z" fill="white"/>
<path d="M11.4199 7.78313C11.2834 7.78313 11.1719 7.67103 11.1719 7.53383V7.42508C11.1719 7.28788 11.2834 7.17578 11.4199 7.17578C11.5564 7.17578 11.668 7.28788 11.668 7.42508V7.53383C11.668 7.67103 11.5564 7.78313 11.4199 7.78313Z" fill="white"/>
<path d="M8.51953 5.42895C8.38302 5.42895 8.27148 5.31685 8.27148 5.17965V3.18192C8.27148 3.04472 8.38302 2.93262 8.51953 2.93262C8.65603 2.93262 8.76757 3.04472 8.76757 3.18192V5.18132C8.76757 5.31852 8.65603 5.43062 8.51953 5.43062V5.42895Z" fill="white"/>
<path d="M7.28698 14.0107C6.92074 14.0107 6.62109 13.7113 6.62109 13.3415V9.84963C6.62109 9.71243 6.73263 9.60033 6.86914 9.60033C7.00564 9.60033 7.11718 9.71243 7.11718 9.84963V13.3415C7.11718 13.4369 7.19376 13.5121 7.28698 13.5121C7.3802 13.5121 7.45678 13.4352 7.45678 13.3415V6.95342C7.45678 6.81622 7.56832 6.70412 7.70482 6.70412C8.01779 6.70412 8.27249 6.44813 8.27249 6.13358C8.27249 5.99638 8.38403 5.88428 8.52053 5.88428C8.65704 5.88428 8.76858 5.99638 8.76858 6.13358C8.76858 6.63719 8.42065 7.05883 7.95453 7.1726V13.3432C7.95453 13.7113 7.65655 14.0124 7.28864 14.0124L7.28698 14.0107Z" fill="white"/>
<path d="M6.86813 8.68161C6.73162 8.68161 6.62008 8.56951 6.62008 8.43231V7.12726C6.17727 7.01516 5.84766 6.61193 5.84766 6.13341V3.17362C5.84932 3.03642 5.96086 2.92432 6.09736 2.92432C6.23387 2.92432 6.34541 3.03642 6.34541 3.17362V6.13508C6.34541 6.42621 6.58013 6.66212 6.86979 6.66212C7.0063 6.66212 7.11783 6.77422 7.11783 6.91142V8.43398C7.11783 8.57118 7.0063 8.68328 6.86979 8.68328L6.86813 8.68161Z" fill="white"/>
<path d="M6.91211 6.0817C6.7756 6.0817 6.66406 5.9696 6.66406 5.8324V3.20389C6.66406 3.06669 6.7756 2.95459 6.91211 2.95459C7.04861 2.95459 7.16015 3.06669 7.16015 3.20389V5.8324C7.16015 5.9696 7.04861 6.0817 6.91211 6.0817Z" fill="white"/>
<path d="M7.72656 6.0817C7.59005 6.0817 7.47852 5.9696 7.47852 5.8324V3.20389C7.47852 3.06669 7.59005 2.95459 7.72656 2.95459C7.86307 2.95459 7.9746 3.06669 7.9746 3.20389V5.8324C7.9746 5.9696 7.86307 6.0817 7.72656 6.0817Z" fill="white"/>
</g>
<defs>
<clipPath id="clip0_3755_6652">
<rect width="5.81818" height="11.1515" fill="white" transform="translate(5.84961 2.92432)"/>
</clipPath>
</defs>
</svg>
