<svg width="17" height="19" viewBox="0 0 17 19" fill="none" xmlns="http://www.w3.org/2000/svg">
<g clip-path="url(#clip0_3755_15926)">
<path d="M8.70758 18.2729H1.4147C0.731751 18.2729 0.177734 17.7091 0.177734 17.0186V1.52729C0.177734 0.83679 0.733766 0.272949 1.4147 0.272949H8.70758C9.39053 0.272949 9.94454 0.83679 9.94454 1.52729V2.42412C9.94454 2.64067 9.77129 2.81636 9.55774 2.81636C9.34419 2.81636 9.17094 2.64067 9.17094 2.42412V1.52729C9.17094 1.26784 8.96343 1.05742 8.70758 1.05742H1.4147C1.15885 1.05742 0.951343 1.26784 0.951343 1.52729V17.0186C0.951343 17.2781 1.15885 17.4885 1.4147 17.4885H8.70758C8.96343 17.4885 9.17094 17.2781 9.17094 17.0186V16.1075C9.17094 15.8909 9.34419 15.7152 9.55774 15.7152C9.77129 15.7152 9.94454 15.8909 9.94454 16.1075V17.0186C9.94454 17.7112 9.38851 18.2729 8.70758 18.2729Z" fill="white"/>
<path d="M6.84246 2.00127H3.11141C2.89787 2.00127 2.72461 1.82558 2.72461 1.60903C2.72461 1.39249 2.89787 1.2168 3.11141 1.2168H6.84246C7.05601 1.2168 7.22927 1.39249 7.22927 1.60903C7.22927 1.82558 7.05601 2.00127 6.84246 2.00127Z" fill="white"/>
<path d="M6.18418 14.9817H2.65257C2.08445 14.9817 1.62109 14.5119 1.62109 13.9358V3.99909C1.62109 3.42299 2.08445 2.95312 2.65257 2.95312H6.92757C7.14111 2.95312 7.31437 3.12881 7.31437 3.34536C7.31437 3.56191 7.14111 3.7376 6.92757 3.7376H2.65257C2.51356 3.7376 2.3947 3.85609 2.3947 3.99909V13.9378C2.3947 14.0788 2.51356 14.1993 2.65257 14.1993H6.18418C6.39772 14.1993 6.57098 14.375 6.57098 14.5915C6.57098 14.8081 6.39772 14.9838 6.18418 14.9838" fill="white"/>
<path d="M5.7597 16.4425C5.7597 16.8184 5.45952 17.1228 5.08883 17.1228C4.71815 17.1228 4.41797 16.8184 4.41797 16.4425C4.41797 16.0666 4.71815 15.7622 5.08883 15.7622C5.45952 15.7622 5.7597 16.0666 5.7597 16.4425Z" fill="white"/>
<path d="M10.708 8.73471L10.6576 8.71837V6.83073C10.9658 6.93492 11.1975 7.14738 11.3889 7.49672C11.4574 7.62133 11.6145 7.66832 11.7394 7.59886L12.1162 7.38844C12.237 7.32103 12.2854 7.16985 12.225 7.04319C11.9953 6.56515 11.4695 6.02787 10.6596 5.8624V4.75514C10.6596 4.6101 10.5448 4.49365 10.4017 4.49365H9.98874C9.84571 4.49365 9.73087 4.6101 9.73087 4.75514V5.83788C8.73969 5.9911 8.06681 6.66934 8.06681 7.55188C8.06681 8.68977 8.90287 9.14125 9.73087 9.42726V11.6234C9.2514 11.4926 8.86258 11.178 8.63896 10.7347C8.57449 10.6081 8.42339 10.557 8.29647 10.6183L7.89557 10.8164C7.76865 10.8798 7.71425 11.033 7.77469 11.1637C8.10911 11.8849 8.86258 12.4262 9.73087 12.5856V13.75C9.73087 13.8951 9.84571 14.0115 9.98874 14.0115H10.4017C10.5448 14.0115 10.6596 13.8951 10.6596 13.75V12.6121C11.812 12.4794 12.5433 11.7643 12.5433 10.7429C12.5433 9.53145 11.6649 9.06158 10.71 8.73063M9.73087 6.79396V8.38334C9.20909 8.16475 9.05598 7.95637 9.05598 7.55188C9.05598 7.06362 9.40652 6.86955 9.73087 6.79396ZM11.5541 10.7429C11.5541 11.368 11.0464 11.5825 10.6616 11.6561V9.75004C11.4131 10.032 11.5541 10.273 11.5541 10.7429Z" fill="white"/>
<path d="M4.93812 6.90847C4.88977 6.90847 4.8394 6.89826 4.79105 6.87987C4.59362 6.79815 4.49894 6.56731 4.57952 6.3671C4.77292 5.89111 5.06907 5.48253 5.4599 5.15771C5.6251 5.02083 5.86887 5.0433 6.00586 5.21082C6.14285 5.37834 6.11868 5.62553 5.95348 5.76445C5.66136 6.00755 5.44177 6.31194 5.29672 6.66741C5.23427 6.81858 5.09123 6.91051 4.93812 6.91051" fill="white"/>
<path d="M10.0635 15.4928C6.69311 15.4928 3.94922 12.7124 3.94922 9.29258C3.94922 8.83701 3.99757 8.38144 4.09427 7.94018C4.14061 7.72772 4.34811 7.59493 4.55562 7.64191C4.76513 7.6889 4.89608 7.89932 4.84975 8.10974C4.76513 8.49585 4.72283 8.89217 4.72283 9.29054C4.72283 12.2752 7.11819 14.7042 10.0615 14.7042C13.0049 14.7042 15.4002 12.2752 15.4002 9.29054C15.4002 6.30586 13.0049 3.87685 10.0615 3.87685C9.54378 3.87685 9.03207 3.95244 8.54252 4.09952C8.33703 4.16081 8.12147 4.04232 8.06103 3.83395C8.00059 3.62557 8.11744 3.40698 8.32293 3.34569C8.885 3.17613 9.47125 3.09033 10.0635 3.09033C13.434 3.09033 16.1779 5.87072 16.1779 9.29054C16.1779 12.7104 13.436 15.4907 10.0635 15.4907" fill="white"/>
<path d="M6.62273 5.04534C6.50588 5.04534 6.38903 4.99222 6.31248 4.88804C6.18354 4.71439 6.21779 4.46924 6.38903 4.3385C6.97327 3.8911 7.62399 3.55811 8.32305 3.34769C8.52854 3.2864 8.74411 3.40489 8.80455 3.61327C8.86498 3.82164 8.74814 4.04023 8.54265 4.10152C7.93222 4.28538 7.3641 4.57547 6.85441 4.96567C6.7839 5.01878 6.70331 5.04534 6.62273 5.04534Z" fill="white"/>
</g>
<defs>
<clipPath id="clip0_3755_15926">
<rect width="16" height="18" fill="white" transform="translate(0.177734 0.272949)"/>
</clipPath>
</defs>
</svg>
