<svg width="16" height="16" viewBox="0 0 12 12" fill="none" xmlns="http://www.w3.org/2000/svg">
<path d="M6 11.9999C4.4087 11.9999 2.88261 11.3678 1.75734 10.2426C0.632117 9.11736 0 7.59116 0 5.99995C0 4.40874 0.632117 2.88259 1.75734 1.75732C2.88256 0.632112 4.40878 0 6 0C7.59122 0 9.11739 0.632112 10.2427 1.75732C11.3679 2.88254 12 4.40874 12 5.99995C12 7.05313 11.7228 8.08783 11.1962 9.00005C10.6696 9.91212 9.91207 10.6696 9.00002 11.1962C8.08785 11.7228 7.05314 12 5.9999 12L6 11.9999ZM6 1.19984C4.72692 1.19984 3.50599 1.70559 2.60592 2.6058C1.7057 3.50591 1.19995 4.72683 1.19995 5.99985C1.19995 7.27286 1.7057 8.49384 2.60592 9.39389C3.50604 10.2941 4.72697 10.7999 6 10.7999C7.27303 10.7999 8.49401 10.2941 9.39408 9.39389C10.2943 8.49378 10.8001 7.27286 10.8001 5.99985C10.8001 5.15729 10.5783 4.32951 10.1569 3.59987C9.73559 2.87012 9.1297 2.26423 8.39995 1.84295C7.67029 1.42157 6.84251 1.19978 5.99995 1.19978L6 1.19984ZM6.59997 8.39988V5.9999C6.59997 5.78554 6.48566 5.58746 6.30004 5.48029C6.11441 5.37311 5.88559 5.37311 5.69996 5.48029C5.51433 5.58746 5.40003 5.78554 5.40003 5.9999V8.39988C5.40003 8.61423 5.51433 8.81231 5.69996 8.91949C5.88559 9.02667 6.1144 9.02667 6.30004 8.91949C6.48567 8.81231 6.59997 8.61423 6.59997 8.39988ZM6 2.99985C5.84089 2.99985 5.68821 3.06313 5.57571 3.17563C5.46321 3.28813 5.40003 3.44072 5.40003 3.59992C5.40003 3.75902 5.46321 3.9116 5.57571 4.0241C5.68821 4.1367 5.84088 4.19988 6 4.19988C6.15912 4.19988 6.31179 4.1367 6.42429 4.0241C6.53679 3.9116 6.59997 3.75901 6.59997 3.59992C6.59997 3.44071 6.53679 3.28813 6.42429 3.17563C6.31179 3.06313 6.15912 2.99985 6 2.99985Z" fill="black"/>
</svg>
