<svg width="114" height="100" viewBox="0 0 114 100" fill="none" xmlns="http://www.w3.org/2000/svg">
<g clip-path="url(#clip0_3755_15895)">
<path d="M100.309 0H0.433594V100H100.309V0Z" fill="#231F20"/>
<path d="M18.3206 85.7331H18.7201C18.845 85.7331 18.9698 85.7331 19.103 85.7248C19.2362 85.7165 19.361 85.6915 19.4692 85.6582C19.5774 85.6166 19.6773 85.5583 19.7439 85.4751C19.8188 85.3919 19.8521 85.267 19.8521 85.1089C19.8521 84.9757 19.8271 84.8591 19.7689 84.7842C19.7189 84.701 19.644 84.6344 19.5608 84.5928C19.4692 84.5512 19.3777 84.5179 19.2695 84.5012C19.1613 84.4846 19.053 84.4763 18.9448 84.4763H18.3122V85.7331H18.3206ZM17.8711 84.0518H18.8366C19.0198 84.0518 19.1945 84.0601 19.3777 84.085C19.5608 84.11 19.7189 84.1516 19.8604 84.2266C20.0019 84.3015 20.1185 84.4013 20.21 84.5428C20.3016 84.6844 20.3432 84.8675 20.3432 85.1089C20.3432 85.3919 20.26 85.6166 20.0935 85.7831C19.927 85.9579 19.694 86.0661 19.4026 86.1077L20.4764 87.864H19.927L18.9032 86.1493H18.3289V87.864H17.8794V84.0518H17.8711Z" fill="white"/>
<path d="M24.1719 84.0518H26.5441V84.4763H24.6213V85.6665H26.4193V86.091H24.6213V87.4478H26.644V87.864H24.1719V84.0518Z" fill="white"/>
<path d="M32.4622 84.7262C32.3873 84.6014 32.2874 84.5181 32.1625 84.4599C32.0377 84.4016 31.9045 84.3766 31.7713 84.3766C31.6714 84.3766 31.5716 84.3933 31.48 84.4099C31.3801 84.4349 31.2969 84.4765 31.222 84.5265C31.1471 84.5764 31.0805 84.643 31.0388 84.7262C30.9889 84.8095 30.9723 84.9093 30.9723 85.0175C30.9723 85.1008 30.9889 85.1757 31.0139 85.2423C31.0388 85.3089 31.0805 85.3671 31.1471 85.4254C31.2053 85.4753 31.2886 85.5336 31.3968 85.5752C31.4966 85.6252 31.6298 85.6668 31.7713 85.7167C31.9128 85.7667 32.0543 85.8166 32.1958 85.8666C32.329 85.9165 32.4539 85.9914 32.5621 86.0747C32.6703 86.1579 32.7535 86.2578 32.8118 86.3826C32.87 86.5075 32.9033 86.6656 32.9033 86.8487C32.9033 87.0319 32.87 87.2067 32.7951 87.3398C32.7202 87.4813 32.6203 87.5979 32.4955 87.6894C32.3706 87.781 32.2291 87.8476 32.071 87.8975C31.9128 87.9391 31.7464 87.9641 31.5716 87.9641C31.4634 87.9641 31.3551 87.9558 31.2386 87.9308C31.1304 87.9142 31.0222 87.8809 30.9223 87.8393C30.8224 87.7976 30.7225 87.7477 30.6393 87.6811C30.5478 87.6145 30.4728 87.5313 30.4062 87.4397L30.7891 87.1234C30.8724 87.2649 30.9889 87.3731 31.1304 87.4397C31.2719 87.5146 31.4301 87.5479 31.5965 87.5479C31.6964 87.5479 31.788 87.5313 31.8879 87.5063C31.9877 87.4813 32.071 87.4397 32.1542 87.3815C32.2291 87.3232 32.2957 87.2566 32.3457 87.1734C32.3956 87.0901 32.4206 86.9986 32.4206 86.8904C32.4206 86.7738 32.4039 86.6739 32.3623 86.599C32.3207 86.5241 32.2624 86.4575 32.1792 86.4076C32.0959 86.3576 31.9961 86.3077 31.8712 86.2661C31.7464 86.2245 31.6049 86.1745 31.4301 86.1163C31.2969 86.0746 31.172 86.0247 31.0555 85.9664C30.939 85.9082 30.8391 85.8416 30.7558 85.7583C30.6726 85.6751 30.606 85.5836 30.5561 85.467C30.5061 85.3505 30.4812 85.2173 30.4812 85.0592C30.4812 84.876 30.5145 84.7179 30.5894 84.5764C30.6643 84.4432 30.7558 84.3267 30.8807 84.2351C30.9972 84.1436 31.1387 84.077 31.2886 84.027C31.4384 83.9771 31.6049 83.9604 31.7713 83.9604C31.9877 83.9604 32.1792 83.9937 32.354 84.0603C32.5288 84.1269 32.6869 84.2435 32.8284 84.4099L32.4622 84.7345V84.7262Z" fill="white"/>
<path d="M39.3621 84.4763H38.1135V87.864H37.6724V84.4763H36.4238V84.0518H39.3621V84.4763Z" fill="white"/>
<path d="M44.1575 84.6344H44.1491L43.3667 86.5072H44.9066L44.1575 84.6344ZM43.9577 84.0518H44.3822L45.9887 87.864H45.4643L45.0814 86.9234H43.1919L42.8007 87.864H42.293L43.9577 84.0518Z" fill="white"/>
<path d="M51.7968 86.4156C51.7968 86.6237 51.7719 86.8235 51.7219 87.0066C51.672 87.1897 51.5887 87.3562 51.4805 87.4977C51.3723 87.6392 51.2225 87.7557 51.0394 87.839C50.8563 87.9222 50.6398 87.9638 50.3818 87.9638C50.1238 87.9638 49.899 87.9222 49.7242 87.839C49.5411 87.7557 49.3996 87.6392 49.2831 87.4977C49.1749 87.3562 49.0917 87.1897 49.0417 87.0066C48.9918 86.8235 48.9668 86.6237 48.9668 86.4156V84.0601H49.4163V86.3574C49.4163 86.5155 49.4329 86.657 49.4662 86.8069C49.4995 86.9484 49.5494 87.0815 49.6244 87.1897C49.6993 87.2979 49.7992 87.3895 49.924 87.4561C50.0489 87.5227 50.207 87.556 50.3901 87.556C50.5733 87.556 50.7314 87.5227 50.8563 87.4561C50.9811 87.3895 51.081 87.2979 51.1559 87.1897C51.2308 87.0815 51.2808 86.9484 51.3141 86.8069C51.3474 86.6654 51.364 86.5155 51.364 86.3574V84.0601H51.8135V86.4156H51.7968Z" fill="white"/>
<path d="M55.7678 85.7331H56.1674C56.2922 85.7331 56.4171 85.7331 56.5503 85.7248C56.6834 85.7165 56.8083 85.6915 56.9165 85.6582C57.0247 85.6166 57.1246 85.5583 57.1912 85.4751C57.2661 85.3919 57.2994 85.267 57.2994 85.1089C57.2994 84.9757 57.2744 84.8591 57.2161 84.7842C57.1662 84.701 57.0913 84.6344 57.0081 84.5928C56.9165 84.5512 56.8249 84.5179 56.7167 84.5012C56.6085 84.4846 56.5003 84.4763 56.3921 84.4763H55.7595V85.7331H55.7678ZM55.3184 84.0518H56.2839C56.467 84.0518 56.6418 84.0601 56.8249 84.085C57.0081 84.11 57.1662 84.1516 57.3077 84.2266C57.4492 84.3015 57.5657 84.4013 57.6573 84.5428C57.7489 84.6844 57.7905 84.8675 57.7905 85.1089C57.7905 85.3919 57.7072 85.6166 57.5408 85.7831C57.3743 85.9579 57.1412 86.0661 56.8499 86.1077L57.9237 87.864H57.3743L56.3505 86.1493H55.7762V87.864H55.3267V84.0518H55.3184Z" fill="white"/>
<path d="M62.884 84.6344H62.8757L62.0933 86.5072H63.6331L62.884 84.6344ZM62.6843 84.0518H63.1088L64.7152 87.864H64.1908L63.8079 86.9234H61.9185L61.5273 87.864H61.0195L62.6843 84.0518Z" fill="white"/>
<path d="M67.4961 84.0518H68.0621L70.2512 87.2147H70.2595V84.0518H70.709V87.864H70.143L67.9539 84.701H67.9456V87.864H67.4961V84.0518Z" fill="white"/>
<path d="M76.8177 84.4763H75.5691V87.864H75.1196V84.4763H73.8711V84.0518H76.8177V84.4763Z" fill="white"/>
<path d="M80.3555 84.0518H82.7194V84.4763H80.7966V85.6665H82.5945V86.091H80.7966V87.4478H82.8193V87.864H80.3555V84.0518Z" fill="white"/>
<path d="M41.0106 71.5997C40.0617 71.6579 39.0878 71.4498 38.2471 70.9754C35.7583 69.5853 34.2934 66.2392 33.8273 63.4924C33.2613 60.163 33.4777 55.0356 36.8321 53.1878C37.6228 52.755 38.5218 52.5552 39.4207 52.5552C43.5742 52.5552 46.4792 56.6837 46.4792 62.5935C46.4792 64.8742 45.9798 68.0704 44.3566 69.9849C43.5076 70.9837 42.2674 71.5247 41.0022 71.5997M40.1948 49.875C32.2458 49.875 28.625 56.176 28.625 62.0358C28.625 67.8956 32.1625 74.1966 39.9285 74.1966C46.7372 74.1966 51.4983 68.9777 51.4983 61.5114C51.4983 54.4363 47.0618 49.875 40.1948 49.875Z" fill="white"/>
<path d="M20.5425 78.5585C20.7256 76.8771 20.7256 67.2134 20.7256 63.5593V46.0714C20.7256 46.0714 12.1024 46.1546 11.0369 46.1546C10.3377 46.1546 10.3377 42.4673 11.0619 42.4673C11.2284 42.4673 14.3747 42.5755 16.7386 42.5755H35.2087C37.0066 42.5755 40.8938 42.4673 41.0269 42.4673C41.7511 42.4673 41.7761 46.0631 41.0519 46.0631C40.2112 46.0631 36.374 46.0298 33.6689 46.0215L25.2454 46.0797V63.5677C25.2454 67.2217 25.287 76.8771 25.4784 78.6085C25.6199 79.7321 20.401 79.7321 20.5425 78.5585Z" fill="white"/>
<path d="M85.9662 72.7318C84.3348 73.9138 82.1207 74.0469 80.5975 74.0469C79.5737 74.0469 78.5332 73.8721 77.5427 73.6141C75.7448 73.1397 74.5213 72.4655 74.0551 70.5177C73.9469 70.0682 73.8387 69.4606 74.0968 69.0444C74.2216 68.8363 74.4297 68.7115 74.6544 68.7115C74.9791 68.7115 75.1955 68.8447 75.57 69.0944C75.7864 69.2359 76.0861 69.4273 76.5439 69.6937C77.9256 70.5011 79.2158 71.167 81.0387 71.167C83.286 71.167 84.6761 70.035 84.6761 68.2204C84.6761 67.13 84.6345 65.5485 82.1207 64.0503C79.4155 62.4438 75.6699 60.7375 75.2371 57.1833C75.2038 56.8919 75.1871 56.609 75.1871 56.3176C75.1871 52.5553 78.6248 49.8252 83.3693 49.8252C85.3336 49.8252 86.166 50.1332 87.0566 50.5327C87.9806 50.9489 88.9627 51.6148 88.9294 52.7385C88.9128 53.3128 88.713 54.7611 87.9223 54.7611H87.8058L87.6726 54.7028C87.4562 54.603 87.2231 54.4448 86.9235 54.245C86.7736 54.1368 86.5988 54.0203 86.4074 53.8954L86.2159 53.7706C84.3931 52.5886 80.1231 51.9977 79.6986 55.0275C79.5487 56.1012 79.6569 57.4829 82.2206 58.9229L83.4525 59.6138C87.2647 61.7363 89.2041 63.6008 89.2041 66.7554C89.2041 69.2525 88.172 71.1503 85.9496 72.7318" fill="white"/>
<path d="M79.34 79.5572C77.9999 79.7403 76.743 79.5655 76.3435 79.5239C72.5479 79.116 70.0509 76.6023 67.5621 73.9221C65.2981 71.4832 63.059 69.0111 60.8283 66.539C60.1707 65.8149 59.5215 65.0824 58.8639 64.3582C58.8639 64.3582 58.8639 68.4202 58.8639 72.2573C58.8972 75.8531 58.9555 77.6178 59.0553 78.6166C59.1885 79.7403 54.6105 79.7403 54.7437 78.5667C54.8269 77.7759 54.8769 77.0934 54.8935 74.2384C54.8935 67.8042 54.8935 60.1964 54.8935 56.0762C54.8602 52.9049 54.802 51.2901 54.7021 50.3579C54.5689 49.2342 59.1136 49.2342 58.9804 50.4078C58.8972 51.1903 58.8556 51.8645 58.8306 54.6695C58.8306 56.9252 58.8473 62.2524 58.8473 62.2524C64.3242 56.7005 69.8011 51.1403 75.2781 45.5885C76.51 44.3399 77.7419 43.0831 78.9904 41.8512C80.0642 40.7941 81.2794 39.3957 82.8609 39.2209C83.9097 39.1044 85.7575 39.3041 84.3592 40.5943C83.9097 41.0105 78.7823 45.7216 73.5801 51.0488C68.3612 56.3925 63.0757 62.3439 62.4514 63.0764C61.9853 63.6174 70.3672 71.8412 71.1912 72.6902C73.6217 75.2122 75.5611 77.0018 79.5148 78.1671C79.8478 78.267 80.7634 78.4917 80.6468 79.0078C80.5553 79.4406 79.623 79.5072 79.315 79.5488" fill="white"/>
<path d="M103.971 94.7729C103.971 94.0904 104.096 93.4578 104.354 92.8751C104.612 92.2925 104.953 91.7847 105.394 91.3602C105.827 90.9357 106.335 90.6028 106.917 90.3531C107.5 90.1117 108.116 89.9868 108.773 89.9868C109.431 89.9868 110.039 90.1117 110.621 90.3531C111.204 90.5944 111.72 90.9274 112.153 91.3519C112.586 91.7764 112.935 92.2758 113.185 92.8501C113.443 93.4245 113.568 94.0487 113.568 94.723C113.568 95.3972 113.443 96.0381 113.185 96.6207C112.927 97.2034 112.586 97.7111 112.153 98.1356C111.72 98.5601 111.204 98.8931 110.621 99.1428C110.039 99.3842 109.423 99.509 108.773 99.509C108.124 99.509 107.5 99.3842 106.917 99.1428C106.335 98.9014 105.827 98.5685 105.394 98.144C104.961 97.7195 104.612 97.22 104.354 96.6457C104.096 96.0714 103.971 95.4471 103.971 94.7729ZM104.736 94.7729C104.736 95.3472 104.845 95.8799 105.053 96.3627C105.261 96.8538 105.552 97.2783 105.918 97.6445C106.285 98.0108 106.709 98.2938 107.2 98.5019C107.683 98.71 108.207 98.8182 108.773 98.8182C109.339 98.8182 109.864 98.71 110.347 98.5019C110.829 98.2938 111.262 98.0025 111.628 97.6362C111.995 97.27 112.286 96.8372 112.494 96.3377C112.702 95.8383 112.81 95.2973 112.81 94.7146C112.81 94.132 112.702 93.6076 112.494 93.1165C112.286 92.6171 111.995 92.1926 111.628 91.8263C111.262 91.4601 110.838 91.1771 110.347 90.9773C109.864 90.7692 109.339 90.6694 108.773 90.6694C108.207 90.6694 107.683 90.7776 107.2 90.9856C106.718 91.1937 106.285 91.4767 105.918 91.843C105.552 92.2092 105.261 92.6337 105.053 93.1331C104.845 93.6326 104.736 94.1736 104.736 94.7646V94.7729ZM106.992 92.0178H109.015C109.681 92.0178 110.172 92.1426 110.488 92.3923C110.804 92.6421 110.963 93.0499 110.963 93.5993C110.963 94.0904 110.821 94.4566 110.538 94.6897C110.255 94.9227 109.914 95.0559 109.498 95.0975L111.087 97.528H110.255L108.748 95.1641H107.758V97.528H106.992V92.0095V92.0178ZM107.758 94.4732H108.707C108.89 94.4732 109.081 94.4733 109.256 94.4566C109.431 94.44 109.597 94.4067 109.739 94.3484C109.88 94.2901 109.989 94.1986 110.072 94.082C110.155 93.9655 110.197 93.7907 110.197 93.566C110.197 93.3829 110.163 93.2247 110.089 93.1082C110.014 92.9916 109.922 92.9084 109.797 92.8418C109.681 92.7836 109.539 92.7419 109.398 92.7253C109.248 92.7086 109.098 92.7003 108.957 92.7003H107.766V94.4649L107.758 94.4732Z" fill="#231F20"/>
</g>
<defs>
<clipPath id="clip0_3755_15895">
<rect width="113.135" height="100" fill="white" transform="translate(0.433594)"/>
</clipPath>
</defs>
</svg>
