<svg width="15" height="16" viewBox="0 0 15 16" fill="none" xmlns="http://www.w3.org/2000/svg">
<path d="M7.38829 3.21351L8.45972 2.14209H0.803012C0.693837 2.14209 0.535156 2.35075 0.535156 2.6778C0.535156 3.00485 0.693837 3.21351 0.803012 3.21351H7.38829Z" fill="white"/>
<path d="M8.64215 5.28383C8.3505 5.51067 7.96951 5.5878 7.61257 5.49214C7.25576 5.39647 6.96433 5.13915 6.82526 4.79691C6.68619 4.45466 6.71549 4.06699 6.90454 3.74951H1.2716L0.0227199 7.97735C0.00765295 8.03941 0 8.10315 0 8.16712V15.5352H8.83925V8.16712C8.83925 8.05759 8.85264 7.94853 8.87919 7.84236C8.88015 7.83865 8.8811 7.83506 8.88218 7.83136L9.93077 4.28158L8.64215 5.28383ZM4.28574 9.10667H4.28526C4.28538 9.14817 4.27593 9.1893 4.2574 9.22649L3.75456 10.2323L3.97614 13.3351C3.99205 13.5576 3.9148 13.7767 3.76281 13.9399C3.61071 14.1033 3.39773 14.1959 3.1746 14.1959H2.7183C2.49516 14.1959 2.2822 14.1033 2.13009 13.9399C1.9781 13.7767 1.90085 13.5576 1.91676 13.3351L2.13834 10.2323L1.6355 9.22649C1.61697 9.1893 1.60752 9.14817 1.60764 9.10667H1.60716V8.03525C1.60716 7.88733 1.7271 7.76739 1.87502 7.76739C2.02294 7.76739 2.14287 7.88733 2.14287 8.03525V8.83882H2.67859V8.03525C2.67859 7.88733 2.79852 7.76739 2.94644 7.76739C3.09436 7.76739 3.2143 7.88733 3.2143 8.03525V8.83882H3.75001V8.03525C3.75001 7.88733 3.86995 7.76739 4.01787 7.76739C4.16578 7.76739 4.28572 7.88733 4.28572 8.03525L4.28574 9.10667ZM6.70027 13.9314C6.54781 14.0997 6.33136 14.1958 6.10428 14.196H5.68122C5.45426 14.196 5.23784 14.0999 5.08548 13.9316C4.93312 13.7632 4.85912 13.5383 4.88172 13.3124L5.08931 11.2361V11.1471L4.70164 10.9532C4.60442 10.9047 4.54618 10.8021 4.55431 10.6936C4.56328 10.5743 4.79264 7.7674 6.4286 7.7674C6.49963 7.7674 6.56779 7.79562 6.61802 7.84584C6.66824 7.89606 6.69646 7.96423 6.69646 8.03525V11.2361L6.90405 13.3122C6.92653 13.5381 6.85251 13.763 6.70029 13.9314L6.70027 13.9314Z" fill="white"/>
<path d="M13.3926 0H14.9997V2.94642H13.3926V0Z" fill="white"/>
<path d="M6.82856 0.646526L5.06836 1.60661H9.10702C9.21536 1.60661 9.31305 1.6719 9.35454 1.77199C9.39592 1.87208 9.37308 1.98723 9.29643 2.06388L7.4627 3.89761C7.30665 4.05354 7.24136 4.27846 7.28955 4.4936C7.33762 4.70884 7.49272 4.88439 7.70031 4.95887C7.90789 5.03337 8.13916 4.99642 8.31316 4.86094L9.98486 3.56075H9.98474C10.0509 3.50957 10.1319 3.48171 10.2155 3.48159H10.8739C11.1157 3.48135 11.3473 3.38521 11.5183 3.21433C11.6892 3.04333 11.7854 2.81172 11.7856 2.56991C11.7858 2.33387 11.9772 2.14254 12.2132 2.14229H12.857V0.535156H7.26481C7.11235 0.535276 6.96228 0.573541 6.82834 0.646483L6.82856 0.646526Z" fill="white"/>
<path d="M3.23365 10.4473H2.66111L2.45185 13.3747C2.44658 13.4488 2.47229 13.5219 2.52299 13.5763C2.5737 13.6307 2.64473 13.6615 2.71898 13.6615H3.17541C3.24979 13.6615 3.32082 13.6307 3.37152 13.5763C3.4221 13.5219 3.44793 13.4488 3.44267 13.3747L3.23365 10.4473Z" fill="white"/>
<path d="M5.62473 10.9833H6.16044V8.35352C5.83029 8.47931 5.5598 8.84775 5.35399 9.45353C5.23645 9.81322 5.15382 10.1834 5.10742 10.559L5.47667 10.7437V10.7438C5.56742 10.7891 5.6247 10.8819 5.6247 10.9833L5.62473 10.9833Z" fill="white"/>
<path d="M2.57645 9.91071H3.3169L3.58475 9.375H2.30859L2.57645 9.91071Z" fill="white"/>
<path d="M9.75391 15.5359H11.1391L10.4465 14.8433L9.75391 15.5359Z" fill="white"/>
<path d="M6.18692 11.5171H5.60026L5.4154 13.3653C5.40786 13.4406 5.4325 13.5156 5.48332 13.5718C5.53414 13.6279 5.60624 13.6599 5.68194 13.6599H6.10524C6.18094 13.6599 6.25304 13.6279 6.30386 13.5718C6.35469 13.5156 6.37932 13.4406 6.37179 13.3653L6.18692 11.5171Z" fill="white"/>
<path d="M9.39772 7.97754C9.38265 8.0396 9.375 8.10334 9.375 8.16732V15.1567L10.1786 14.3531V8.57109C10.1786 8.42317 10.2985 8.30323 10.4464 8.30323C10.5943 8.30323 10.7143 8.42317 10.7143 8.57109V14.3531L11.5178 15.1567V8.18966C11.5178 8.11301 11.5068 8.0366 11.4852 7.96306L10.4458 4.4292L9.39772 7.97754Z" fill="white"/>
</svg>
