<svg width="12" height="12" viewBox="0 0 12 12" fill="none" xmlns="http://www.w3.org/2000/svg">
<path d="M6 0C4.40868 0 2.88251 0.632083 1.75734 1.75734C0.632177 2.8826 0 4.40868 0 6C0 7.59132 0.632083 9.11749 1.75734 10.2427C2.8826 11.3678 4.40868 12 6 12C7.59132 12 9.11749 11.3679 10.2427 10.2427C11.3678 9.1174 12 7.59132 12 6C11.9977 4.40941 11.3648 2.88463 10.2401 1.75993C9.1154 0.635234 7.59064 0.0023284 6.00002 2.35064e-05L6 0ZM6.43906 6.00002C6.43814 6.12635 6.38393 6.24651 6.28977 6.33075L3.9483 8.3795C3.83015 8.48414 3.66515 8.51768 3.51549 8.46761C3.36583 8.41763 3.25431 8.29149 3.22279 8.13688C3.19137 7.98235 3.24475 7.82268 3.3629 7.71811L5.56095 5.801V2.19502C5.56095 2.03819 5.64464 1.89322 5.78052 1.81476C5.91631 1.73639 6.08371 1.73639 6.21949 1.81476C6.35537 1.89321 6.43906 2.03819 6.43906 2.19502L6.43906 6.00002Z" fill="#F58220"/>
</svg>
